<svg width="100" height="101" viewBox="0 0 100 101" fill="none" xmlns="http://www.w3.org/2000/svg">
<path d="M83.4999 74.1612C84.2999 77.2314 84.8499 80.5533 84.8499 83.8248V88.7572H13.3999V83.8248C13.3999 69.1281 22.1999 56.3943 34.8499 50.8579" stroke="#FF0000" stroke-width="2" stroke-miterlimit="10" stroke-linejoin="round"/>
<path d="M62.9497 50.707C65.5997 51.8143 68.1497 53.3746 70.4997 55.1362" stroke="#FF0000" stroke-width="2" stroke-miterlimit="10" stroke-linejoin="round"/>
<path d="M35.7999 51.5626C39.4499 54.4315 44.0499 56.1931 49.0499 56.1931C54.0499 56.1931 58.6499 54.4315 62.2999 51.5626C67.1999 47.6368 70.3499 41.597 70.4499 34.8023C70.5499 22.8739 60.9499 13.1096 49.2499 13.009C37.2999 12.9083 27.5999 22.5719 27.5999 34.601C27.6499 41.4964 30.7999 47.5361 35.7999 51.5626Z" stroke="#FF0000" stroke-width="2" stroke-miterlimit="10" stroke-linejoin="round"/>
<path d="M77.0497 75.8223C83.3181 75.8223 88.3997 70.707 88.3997 64.3971C88.3997 58.0871 83.3181 52.9719 77.0497 52.9719C70.7813 52.9719 65.6997 58.0871 65.6997 64.3971C65.6997 70.707 70.7813 75.8223 77.0497 75.8223Z" stroke="#FF0000" stroke-width="2" stroke-miterlimit="10" stroke-linejoin="round"/>
<path d="M70.3999 64.7998L74.3999 68.8263L83.5999 59.8673" stroke="#FF0000" stroke-width="2" stroke-miterlimit="10" stroke-linejoin="round"/>
</svg>
