<svg width="519" height="48" viewBox="0 0 519 48" fill="none" xmlns="http://www.w3.org/2000/svg">
<path d="M0.801953 47C0.335287 47 0.101953 46.7433 0.101953 46.23V1.92C0.101953 1.40666 0.335287 1.15 0.801953 1.15H7.24195C7.47529 1.15 7.63862 1.24333 7.73195 1.43C7.87195 1.57 7.94195 1.73333 7.94195 1.92V39.93H21.942C22.4086 39.93 22.642 40.1867 22.642 40.7V46.23C22.642 46.7433 22.4086 47 21.942 47H0.801953ZM40.9738 47.56C36.0738 47.56 32.3404 46.2533 29.7738 43.64C27.2538 40.98 25.9938 37.0833 25.9938 31.95V16.27C25.9938 11.09 27.2538 7.19333 29.7738 4.58C32.3404 1.92 36.0738 0.589997 40.9738 0.589997C45.9671 0.589997 49.7238 1.92 52.2438 4.58C54.8104 7.19333 56.0938 11.09 56.0938 16.27V31.95C56.0938 37.0833 54.8104 40.98 52.2438 43.64C49.7238 46.2533 45.9671 47.56 40.9738 47.56ZM40.9738 40.49C43.4004 40.49 45.2204 39.7667 46.4338 38.32C47.6471 36.8733 48.2538 34.6333 48.2538 31.6V16.62C48.2538 13.54 47.6471 11.2767 46.4338 9.83C45.2204 8.38333 43.4004 7.66 40.9738 7.66C38.6404 7.66 36.8671 8.38333 35.6538 9.83C34.4404 11.2767 33.8338 13.54 33.8338 16.62V31.6C33.8338 34.6333 34.4404 36.8733 35.6538 38.32C36.8671 39.7667 38.6404 40.49 40.9738 40.49ZM63.7609 47C63.2943 47 63.0609 46.7433 63.0609 46.23V1.92C63.0609 1.40666 63.2943 1.15 63.7609 1.15H75.3109C80.3509 1.15 84.0609 2.27 86.4409 4.51C88.8209 6.70333 90.0109 10.04 90.0109 14.52C90.0109 17.8333 89.4276 20.5633 88.2609 22.71C87.0943 24.81 85.4143 26.28 83.2209 27.12V27.26L91.9709 46.02C92.2509 46.6733 92.0876 47 91.4809 47H84.2709C83.8976 47 83.6176 46.8133 83.4309 46.44L75.5209 28.52H70.9009V46.23C70.9009 46.7433 70.6676 47 70.2009 47H63.7609ZM70.9009 22.01H75.2409C77.6676 22.01 79.4176 21.4267 80.4909 20.26C81.6109 19.0933 82.1709 17.2967 82.1709 14.87C82.1709 12.4433 81.6343 10.7167 80.5609 9.69C79.4876 8.66333 77.7609 8.15 75.3809 8.15H70.9009V22.01ZM98.1457 47C97.679 47 97.4457 46.7433 97.4457 46.23V1.92C97.4457 1.40666 97.679 1.15 98.1457 1.15H120.056C120.522 1.15 120.756 1.40666 120.756 1.92V7.45C120.756 7.96333 120.522 8.22 120.056 8.22H105.286V20.4H118.796C119.262 20.4 119.496 20.6567 119.496 21.17V26.35C119.496 26.8633 119.262 27.12 118.796 27.12H105.286V39.93H120.056C120.522 39.93 120.756 40.1867 120.756 40.7V46.23C120.756 46.7433 120.522 47 120.056 47H98.1457ZM127.797 47C127.331 47 127.097 46.7433 127.097 46.23L127.797 1.92C127.797 1.40666 128.031 1.15 128.497 1.15H136.827C137.247 1.15 137.527 1.36 137.667 1.78L146.137 26.42L154.467 1.78C154.607 1.36 154.887 1.15 155.307 1.15H163.637C164.104 1.15 164.337 1.40666 164.337 1.92L165.107 46.23C165.107 46.7433 164.851 47 164.337 47H158.037C157.571 47 157.337 46.7433 157.337 46.23L156.987 23.9C156.941 21.8933 156.941 19.9567 156.987 18.09C157.081 16.2233 157.174 14.45 157.267 12.77H157.127C156.661 14.3567 156.147 15.9667 155.587 17.6C155.027 19.2333 154.444 20.82 153.837 22.36L146.977 40.91C146.837 41.2833 146.581 41.47 146.207 41.47H145.857C145.484 41.47 145.251 41.2833 145.157 40.91L138.227 22.22C137.621 20.68 137.037 19.1167 136.477 17.53C135.964 15.8967 135.474 14.31 135.007 12.77H134.867C135.007 14.45 135.101 16.2233 135.147 18.09C135.194 19.91 135.194 21.8233 135.147 23.83L134.797 46.23C134.797 46.7433 134.564 47 134.097 47H127.797ZM183.663 47C183.197 47 182.963 46.7433 182.963 46.23V1.92C182.963 1.40666 183.197 1.15 183.663 1.15H190.103C190.57 1.15 190.803 1.40666 190.803 1.92V46.23C190.803 46.7433 190.57 47 190.103 47H183.663ZM199.181 47C198.714 47 198.481 46.7433 198.481 46.23V1.92C198.481 1.40666 198.714 1.15 199.181 1.15H209.611C214.651 1.15 218.361 2.38666 220.741 4.86C223.121 7.33333 224.311 11.0433 224.311 15.99C224.311 20.7967 223.098 24.46 220.671 26.98C218.244 29.5 214.604 30.76 209.751 30.76H206.321V46.23C206.321 46.7433 206.088 47 205.621 47H199.181ZM206.321 23.83H209.541C211.921 23.83 213.671 23.2 214.791 21.94C215.911 20.68 216.471 18.7433 216.471 16.13C216.471 13.2833 215.911 11.23 214.791 9.97C213.671 8.71 211.944 8.08 209.611 8.08H206.321V23.83ZM242.025 47.56C237.078 47.56 233.531 46.3467 231.385 43.92C229.285 41.4933 228.421 38.18 228.795 33.98C228.841 33.3267 229.098 33 229.565 33H235.865C236.331 33 236.541 33.3267 236.495 33.98C236.401 36.1733 236.821 37.8533 237.755 39.02C238.735 40.14 240.228 40.7 242.235 40.7C244.241 40.7 245.711 40.28 246.645 39.44C247.578 38.5533 248.045 37.2 248.045 35.38C248.045 34.4 247.905 33.5367 247.625 32.79C247.391 32.0433 246.971 31.3667 246.365 30.76C245.758 30.1067 244.965 29.5 243.985 28.94L236.425 24.46C233.811 22.8733 231.921 21.1467 230.755 19.28C229.635 17.3667 229.098 14.9867 229.145 12.14C229.191 8.40667 230.265 5.56 232.365 3.6C234.511 1.59333 237.685 0.589997 241.885 0.589997C246.505 0.589997 249.958 1.73333 252.245 4.02C254.531 6.30667 255.488 9.55 255.115 13.75C255.021 14.45 254.788 14.8 254.415 14.8H247.975C247.508 14.8 247.298 14.45 247.345 13.75C247.531 11.8367 247.158 10.32 246.225 9.2C245.291 8.03333 243.891 7.45 242.025 7.45C240.438 7.45 239.201 7.84667 238.315 8.64C237.475 9.38667 237.031 10.5533 236.985 12.14C236.938 13.5867 237.241 14.8 237.895 15.78C238.595 16.7133 239.691 17.6 241.185 18.44L248.535 22.78C250.355 23.8533 251.778 24.9733 252.805 26.14C253.878 27.3067 254.648 28.6367 255.115 30.13C255.628 31.5767 255.861 33.3267 255.815 35.38C255.815 39.3 254.718 42.31 252.525 44.41C250.331 46.51 246.831 47.56 242.025 47.56ZM276.407 47.56C271.507 47.56 267.82 46.23 265.347 43.57C262.92 40.8633 261.707 36.8033 261.707 31.39V1.92C261.707 1.40666 261.94 1.15 262.407 1.15H268.847C269.313 1.15 269.547 1.40666 269.547 1.92V31.25C269.547 34.47 270.107 36.8267 271.227 38.32C272.347 39.7667 274.073 40.49 276.407 40.49C278.74 40.49 280.443 39.7667 281.517 38.32C282.637 36.8267 283.197 34.47 283.197 31.25V1.92C283.197 1.40666 283.43 1.15 283.897 1.15H290.337C290.803 1.15 291.037 1.40666 291.037 1.92V31.46C291.037 36.78 289.8 40.7933 287.327 43.5C284.853 46.2067 281.213 47.56 276.407 47.56ZM298.491 47C298.024 47 297.791 46.7433 297.791 46.23L298.491 1.92C298.491 1.40666 298.724 1.15 299.191 1.15H307.521C307.941 1.15 308.221 1.36 308.361 1.78L316.831 26.42L325.161 1.78C325.301 1.36 325.581 1.15 326.001 1.15H334.331C334.797 1.15 335.031 1.40666 335.031 1.92L335.801 46.23C335.801 46.7433 335.544 47 335.031 47H328.731C328.264 47 328.031 46.7433 328.031 46.23L327.681 23.9C327.634 21.8933 327.634 19.9567 327.681 18.09C327.774 16.2233 327.867 14.45 327.961 12.77H327.821C327.354 14.3567 326.841 15.9667 326.281 17.6C325.721 19.2333 325.137 20.82 324.531 22.36L317.671 40.91C317.531 41.2833 317.274 41.47 316.901 41.47H316.551C316.177 41.47 315.944 41.2833 315.851 40.91L308.921 22.22C308.314 20.68 307.731 19.1167 307.171 17.53C306.657 15.8967 306.167 14.31 305.701 12.77H305.561C305.701 14.45 305.794 16.2233 305.841 18.09C305.887 19.91 305.887 21.8233 305.841 23.83L305.491 46.23C305.491 46.7433 305.257 47 304.791 47H298.491ZM354.427 47C353.913 47 353.657 46.7433 353.657 46.23V1.92C353.657 1.40666 353.89 1.15 354.357 1.15H365.557C371.483 1.15 375.917 2.78333 378.857 6.05C381.797 9.27 383.267 14.1233 383.267 20.61V26.07C383.267 33.1167 381.82 38.3667 378.927 41.82C376.033 45.2733 371.647 47 365.767 47H354.427ZM361.497 40H365.347C368.847 40 371.39 38.88 372.977 36.64C374.61 34.3533 375.427 30.8767 375.427 26.21V20.54C375.427 16.34 374.61 13.2367 372.977 11.23C371.343 9.17667 368.73 8.15 365.137 8.15H361.497V40ZM404.167 47.56C399.267 47.56 395.534 46.2533 392.967 43.64C390.447 40.98 389.187 37.0833 389.187 31.95V16.27C389.187 11.09 390.447 7.19333 392.967 4.58C395.534 1.92 399.267 0.589997 404.167 0.589997C409.16 0.589997 412.917 1.92 415.437 4.58C418.004 7.19333 419.287 11.09 419.287 16.27V31.95C419.287 37.0833 418.004 40.98 415.437 43.64C412.917 46.2533 409.16 47.56 404.167 47.56ZM404.167 40.49C406.594 40.49 408.414 39.7667 409.627 38.32C410.84 36.8733 411.447 34.6333 411.447 31.6V16.62C411.447 13.54 410.84 11.2767 409.627 9.83C408.414 8.38333 406.594 7.66 404.167 7.66C401.834 7.66 400.06 8.38333 398.847 9.83C397.634 11.2767 397.027 13.54 397.027 16.62V31.6C397.027 34.6333 397.634 36.8733 398.847 38.32C400.06 39.7667 401.834 40.49 404.167 40.49ZM426.954 47C426.488 47 426.254 46.7433 426.254 46.23V1.92C426.254 1.40666 426.488 1.15 426.954 1.15H433.394C433.628 1.15 433.791 1.24333 433.884 1.43C434.024 1.57 434.094 1.73333 434.094 1.92V39.93H448.094C448.561 39.93 448.794 40.1867 448.794 40.7V46.23C448.794 46.7433 448.561 47 448.094 47H426.954ZM467.126 47.56C462.226 47.56 458.493 46.2533 455.926 43.64C453.406 40.98 452.146 37.0833 452.146 31.95V16.27C452.146 11.09 453.406 7.19333 455.926 4.58C458.493 1.92 462.226 0.589997 467.126 0.589997C472.119 0.589997 475.876 1.92 478.396 4.58C480.963 7.19333 482.246 11.09 482.246 16.27V31.95C482.246 37.0833 480.963 40.98 478.396 43.64C475.876 46.2533 472.119 47.56 467.126 47.56ZM467.126 40.49C469.553 40.49 471.373 39.7667 472.586 38.32C473.799 36.8733 474.406 34.6333 474.406 31.6V16.62C474.406 13.54 473.799 11.2767 472.586 9.83C471.373 8.38333 469.553 7.66 467.126 7.66C464.793 7.66 463.019 8.38333 461.806 9.83C460.593 11.2767 459.986 13.54 459.986 16.62V31.6C459.986 34.6333 460.593 36.8733 461.806 38.32C463.019 39.7667 464.793 40.49 467.126 40.49ZM489.913 47C489.447 47 489.213 46.7433 489.213 46.23V1.92C489.213 1.40666 489.447 1.15 489.913 1.15H501.463C506.503 1.15 510.213 2.27 512.593 4.51C514.973 6.70333 516.163 10.04 516.163 14.52C516.163 17.8333 515.58 20.5633 514.413 22.71C513.247 24.81 511.567 26.28 509.373 27.12V27.26L518.123 46.02C518.403 46.6733 518.24 47 517.633 47H510.423C510.05 47 509.77 46.8133 509.583 46.44L501.673 28.52H497.053V46.23C497.053 46.7433 496.82 47 496.353 47H489.913ZM497.053 22.01H501.393C503.82 22.01 505.57 21.4267 506.643 20.26C507.763 19.0933 508.323 17.2967 508.323 14.87C508.323 12.4433 507.787 10.7167 506.713 9.69C505.64 8.66333 503.913 8.15 501.533 8.15H497.053V22.01Z" fill="url(#paint0_linear_2_1058)"/>
<defs>
<linearGradient id="paint0_linear_2_1058" x1="-4" y1="61" x2="520" y2="61" gradientUnits="userSpaceOnUse">
<stop stop-color="#FCD678"/>
<stop offset="0.0001" stop-color="#FCD678"/>
<stop offset="1" stop-color="#BC8C2F"/>
</linearGradient>
</defs>
</svg>
